<mxfile host="app.diagrams.net" agent="Mozilla/5.0 (Windows NT 10.0; Win64; x64) AppleWebKit/537.36 (KHTML, like Gecko) Chrome/136.0.0.0 Safari/537.36 Edg/136.0.0.0" version="27.0.6">
  <diagram name="Page-1" id="YpYFBm-g-Sycq5UnAZQ3">
    <mxGraphModel dx="1418" dy="756" grid="1" gridSize="10" guides="1" tooltips="1" connect="1" arrows="1" fold="1" page="1" pageScale="1" pageWidth="827" pageHeight="1169" math="0" shadow="0">
      <root>
        <mxCell id="0" />
        <mxCell id="1" parent="0" />
        <mxCell id="5UpZPgNZ72X_5UC7wsnz-1" value="Driver" style="shape=umlActor;verticalLabelPosition=bottom;verticalAlign=top;html=1;" vertex="1" parent="1">
          <mxGeometry x="110" y="200" width="30" height="60" as="geometry" />
        </mxCell>
        <mxCell id="5UpZPgNZ72X_5UC7wsnz-3" value="MyWaze System&lt;div&gt;&lt;br&gt;&lt;/div&gt;" style="html=1;whiteSpace=wrap;verticalAlign=top;fontStyle=1" vertex="1" parent="1">
          <mxGeometry x="290" y="70" width="280" height="480" as="geometry" />
        </mxCell>
        <mxCell id="5UpZPgNZ72X_5UC7wsnz-6" value="Navigation Engine" style="shape=umlActor;verticalLabelPosition=bottom;verticalAlign=top;html=1;" vertex="1" parent="1">
          <mxGeometry x="110" y="390" width="30" height="60" as="geometry" />
        </mxCell>
        <mxCell id="5UpZPgNZ72X_5UC7wsnz-7" value="GPS" style="shape=umlActor;verticalLabelPosition=bottom;verticalAlign=top;html=1;" vertex="1" parent="1">
          <mxGeometry x="680" y="170" width="30" height="60" as="geometry" />
        </mxCell>
        <mxCell id="5UpZPgNZ72X_5UC7wsnz-8" value="Traffic Data&lt;div&gt;&lt;br&gt;&lt;/div&gt;" style="shape=umlActor;verticalLabelPosition=bottom;verticalAlign=top;html=1;" vertex="1" parent="1">
          <mxGeometry x="680" y="390" width="30" height="60" as="geometry" />
        </mxCell>
        <mxCell id="5UpZPgNZ72X_5UC7wsnz-10" value="Receive Voice Instrictions" style="ellipse;whiteSpace=wrap;html=1;" vertex="1" parent="1">
          <mxGeometry x="365" y="140" width="130" height="50" as="geometry" />
        </mxCell>
        <mxCell id="5UpZPgNZ72X_5UC7wsnz-12" value="Re-route If Off Path or Traffic Ahead" style="ellipse;whiteSpace=wrap;html=1;" vertex="1" parent="1">
          <mxGeometry x="357.5" y="450" width="145" height="60" as="geometry" />
        </mxCell>
        <mxCell id="5UpZPgNZ72X_5UC7wsnz-13" value="Get Alerts for Incidents" style="ellipse;whiteSpace=wrap;html=1;" vertex="1" parent="1">
          <mxGeometry x="357.5" y="340" width="145" height="60" as="geometry" />
        </mxCell>
        <mxCell id="5UpZPgNZ72X_5UC7wsnz-14" value="Mute/Unmute Voice Guidance (optional)" style="ellipse;whiteSpace=wrap;html=1;" vertex="1" parent="1">
          <mxGeometry x="365" y="240" width="145" height="60" as="geometry" />
        </mxCell>
        <mxCell id="5UpZPgNZ72X_5UC7wsnz-17" value="" style="endArrow=none;html=1;rounded=0;entryX=0;entryY=1;entryDx=0;entryDy=0;" edge="1" parent="1" target="5UpZPgNZ72X_5UC7wsnz-10">
          <mxGeometry width="50" height="50" relative="1" as="geometry">
            <mxPoint x="150" y="230" as="sourcePoint" />
            <mxPoint x="240" y="210" as="targetPoint" />
          </mxGeometry>
        </mxCell>
        <mxCell id="5UpZPgNZ72X_5UC7wsnz-18" value="" style="endArrow=none;html=1;rounded=0;exitX=1;exitY=0.5;exitDx=0;exitDy=0;" edge="1" parent="1" source="5UpZPgNZ72X_5UC7wsnz-10">
          <mxGeometry width="50" height="50" relative="1" as="geometry">
            <mxPoint x="630" y="340" as="sourcePoint" />
            <mxPoint x="670" y="200" as="targetPoint" />
          </mxGeometry>
        </mxCell>
        <mxCell id="5UpZPgNZ72X_5UC7wsnz-19" value="" style="endArrow=none;html=1;rounded=0;entryX=0.246;entryY=0.98;entryDx=0;entryDy=0;entryPerimeter=0;" edge="1" parent="1" target="5UpZPgNZ72X_5UC7wsnz-10">
          <mxGeometry width="50" height="50" relative="1" as="geometry">
            <mxPoint x="160" y="420" as="sourcePoint" />
            <mxPoint x="474" y="210" as="targetPoint" />
          </mxGeometry>
        </mxCell>
        <mxCell id="5UpZPgNZ72X_5UC7wsnz-21" value="" style="endArrow=none;html=1;rounded=0;entryX=0;entryY=0.5;entryDx=0;entryDy=0;" edge="1" parent="1" target="5UpZPgNZ72X_5UC7wsnz-14">
          <mxGeometry width="50" height="50" relative="1" as="geometry">
            <mxPoint x="160" y="240" as="sourcePoint" />
            <mxPoint x="454" y="210" as="targetPoint" />
          </mxGeometry>
        </mxCell>
        <mxCell id="5UpZPgNZ72X_5UC7wsnz-22" value="" style="endArrow=none;html=1;rounded=0;" edge="1" parent="1" target="5UpZPgNZ72X_5UC7wsnz-13">
          <mxGeometry width="50" height="50" relative="1" as="geometry">
            <mxPoint x="160" y="260" as="sourcePoint" />
            <mxPoint x="335" y="340" as="targetPoint" />
          </mxGeometry>
        </mxCell>
        <mxCell id="5UpZPgNZ72X_5UC7wsnz-23" value="" style="endArrow=none;html=1;rounded=0;" edge="1" parent="1" source="5UpZPgNZ72X_5UC7wsnz-13">
          <mxGeometry width="50" height="50" relative="1" as="geometry">
            <mxPoint x="600" y="180" as="sourcePoint" />
            <mxPoint x="660" y="220" as="targetPoint" />
          </mxGeometry>
        </mxCell>
        <mxCell id="5UpZPgNZ72X_5UC7wsnz-24" value="" style="endArrow=none;html=1;rounded=0;exitX=1;exitY=0.5;exitDx=0;exitDy=0;" edge="1" parent="1" source="5UpZPgNZ72X_5UC7wsnz-13">
          <mxGeometry width="50" height="50" relative="1" as="geometry">
            <mxPoint x="540" y="415" as="sourcePoint" />
            <mxPoint x="670" y="420" as="targetPoint" />
          </mxGeometry>
        </mxCell>
        <mxCell id="5UpZPgNZ72X_5UC7wsnz-25" value="" style="endArrow=none;html=1;rounded=0;exitX=1;exitY=0.5;exitDx=0;exitDy=0;" edge="1" parent="1" source="5UpZPgNZ72X_5UC7wsnz-12">
          <mxGeometry width="50" height="50" relative="1" as="geometry">
            <mxPoint x="590" y="390" as="sourcePoint" />
            <mxPoint x="660" y="430" as="targetPoint" />
          </mxGeometry>
        </mxCell>
        <mxCell id="5UpZPgNZ72X_5UC7wsnz-26" value="" style="endArrow=none;html=1;rounded=0;exitX=1;exitY=0;exitDx=0;exitDy=0;" edge="1" parent="1" source="5UpZPgNZ72X_5UC7wsnz-12">
          <mxGeometry width="50" height="50" relative="1" as="geometry">
            <mxPoint x="610" y="520" as="sourcePoint" />
            <mxPoint x="670" y="230" as="targetPoint" />
          </mxGeometry>
        </mxCell>
        <mxCell id="5UpZPgNZ72X_5UC7wsnz-27" value="" style="endArrow=none;html=1;rounded=0;entryX=0;entryY=0.5;entryDx=0;entryDy=0;" edge="1" parent="1" target="5UpZPgNZ72X_5UC7wsnz-12">
          <mxGeometry width="50" height="50" relative="1" as="geometry">
            <mxPoint x="170" y="430" as="sourcePoint" />
            <mxPoint x="689" y="420" as="targetPoint" />
          </mxGeometry>
        </mxCell>
      </root>
    </mxGraphModel>
  </diagram>
</mxfile>
